<svg xmlns="http://www.w3.org/2000/svg" width="29.082" height="19.586" viewBox="0 0 29.082 19.586">
  <g id="Group_5001" data-name="Group 5001" transform="translate(0)">
    <path id="Path_6" data-name="Path 6" d="M27.9,8.9H2.026l7.89-7.89A.593.593,0,0,0,9.076.174l-8.9,8.9a.593.593,0,0,0,0,.839l8.9,8.9a.593.593,0,1,0,.839-.839l-7.89-7.89H27.9a.594.594,0,1,0,0-1.187" transform="translate(0 0.442)" fill="#fff"/>
    <path id="Path_6_-_Outline" data-name="Path 6 - Outline" d="M9.593,19.386a.884.884,0,0,1-.629-.261l-8.9-8.9a.89.89,0,0,1,0-1.259l8.9-8.9a.89.89,0,0,1,1.52.629.884.884,0,0,1-.261.629L2.839,8.7H27.992a.89.89,0,1,1,0,1.78H2.839l7.383,7.383a.89.89,0,0,1-.629,1.52Zm0-18.993a.3.3,0,0,0-.21.087l-8.9,8.9a.3.3,0,0,0,0,.42l8.9,8.9a.3.3,0,0,0,.42,0,.3.3,0,0,0,0-.42l-8.4-8.4H27.992a.3.3,0,1,0,0-.594H1.407L9.8.9a.3.3,0,0,0-.21-.507Z" transform="translate(0.2 0.2)" fill="#fff"/>
  </g>
</svg>
