<svg xmlns="http://www.w3.org/2000/svg" width="225.983" height="102.113" viewBox="0 0 225.983 102.113">
  <g id="Group_5073" data-name="Group 5073" transform="translate(-1178 -148)">
    <g id="Group_5070" data-name="Group 5070" transform="translate(1178 222)">
      <path id="Path_347" data-name="Path 347" d="M42.105,19.9l3.428.415c1.534.178,1.7,1.5,1.7,2.345v4.166H31.442V22.661c0-.846.17-2.167,1.7-2.345l3.427-.415V16.336H16.056V19.9l3.427.415c1.536.178,1.7,1.5,1.7,2.345V36.315c0,.848-.168,2.169-1.7,2.347l-3.427.417v3.563H36.573V39.08l-3.427-.417c-1.534-.178-1.7-1.5-1.7-2.347V32.151H47.236v4.164c0,.848-.168,2.169-1.7,2.347l-3.428.417v3.563H62.624V39.08L59.2,38.662c-1.536-.178-1.7-1.5-1.7-2.347V22.661c0-.846.168-2.167,1.7-2.345l3.428-.415V16.336H42.105V19.9" transform="translate(-16.056 -15.432)" fill="#d90017"/>
      <path id="Path_348" data-name="Path 348" d="M420.4,16.336H395.065V19.9l3.025.326c1.076.136,1.789.613,1.789,2.147V36.315c0,.848-.166,2.169-1.7,2.347l-3.427.417v3.563l25.648,0c9.174,0,16.723-3.8,16.723-13.152s-7.549-13.15-16.723-13.15M418.53,37.6l-8.595,0V21.376h8.595c5.07,0,6.794,2.471,6.794,8.11S423.6,37.6,418.53,37.6Z" transform="translate(-257.522 -15.432)" fill="#d90017"/>
      <path id="Path_349" data-name="Path 349" d="M551.21,38.7a3.4,3.4,0,0,1-2.634-2.064L536.764,18.086c-.848-1.335-1.465-1.75-2.725-1.75H514.592V19.9l4.638.544a1.4,1.4,0,0,1,.815,2.216L511.32,37.252a2.427,2.427,0,0,1-1.8,1.416l-3.472.411v3.563h16.393V39.076l-2.823-.295c-1.206-.133-1.849-1-1.252-2.005l1.311-2.195h15.74l1.158,1.817c1.022,1.6-.263,2.25-1.376,2.372l-2.9.3v3.567H554.47V39.08l-3.26-.376m-28.754-8.777,4.848-8.1,5.153,8.1Z" transform="translate(-328.487 -15.432)" fill="#d90017"/>
      <path id="Path_350" data-name="Path 350" d="M294.718,19.9l3.427.415c1.534.178,1.7,1.5,1.7,2.345v13.16L286.3,17.455c-.615-.844-1.141-1.119-2.6-1.119H266.1V19.9l3.427.415c1.536.178,1.7,1.5,1.7,2.345V36.315c0,.848-.166,2.169-1.7,2.347l-3.427.417v3.563H282.5V39.08l-3.431-.417c-1.534-.178-1.7-1.5-1.7-2.347V23.155l13.549,18.37c.613.842,1.141,1.117,2.6,1.117h12.47V22.661c0-.846.164-2.167,1.7-2.345l3.426-.415V16.336H294.718V19.9" transform="translate(-175.493 -15.432)" fill="#d90017"/>
      <path id="Path_351" data-name="Path 351" d="M168.325,13.842c-16.666,0-20.966,7.493-20.966,14.058s4.3,14.056,20.966,14.056,20.97-7.5,20.97-14.056-4.3-14.058-20.97-14.058m0,23.1c-6.46,0-9.15-2.784-9.15-9.042s2.691-9.046,9.15-9.046,9.15,2.784,9.15,9.046S174.788,36.941,168.325,36.941Z" transform="translate(-99.778 -13.842)" fill="#d90017"/>
    </g>
    <g id="Group_5011" data-name="Group 5011" transform="translate(1209 121.857)">
      <g id="Group_5010" data-name="Group 5010" transform="translate(38 26.143)">
        <path id="Path_357" data-name="Path 357" d="M71.66,457.809l-4.912-4.552,24.832-2.883,12.008,7.435Z" transform="translate(-47.455 -397.64)" fill="#d90017"/>
        <path id="Path_358" data-name="Path 358" d="M111.779,434.548l-52.313,9.8,4.549,4.214L88.1,445.526a.72.72,0,0,1-.456-.689.672.672,0,0,1,.61-.644c.265-.034,13.39-1.965,14.286-2.1a9.4,9.4,0,0,0,4.97-2.359c.312-.284,1.371-1.355,2.05-2.112.484-.541.83-.937,1.119-1.275.312-.364.985-1.175,1.256-1.539A.163.163,0,0,0,111.779,434.548Z" transform="translate(-45.722 -393.874)" fill="#d90017"/>
        <path id="Path_359" data-name="Path 359" d="M118.458,419.5,53.151,436.313l3.931,3.641,20.1-3.842c-.355-.2-.53-.363-.53-.7a.676.676,0,0,1,.546-.662l32.7-6.337a8.045,8.045,0,0,0,4.655-2.743c.434-.487,1.2-1.476,1.768-2.243.426-.571.782-1.125,1.068-1.533s1-1.578,1.292-2.1A.19.19,0,0,0,118.458,419.5Z" transform="translate(-44.219 -390.292)" fill="#d90017"/>
        <path id="Path_360" data-name="Path 360" d="M107.031,391.4c.9-.37,5.216-2.238,6.193-2.685.957-.433,3.852-1.733,4.915-2.212,1.178-.531,4.616-2.145,5.13-2.391,2.418-1.158,5.4-2.582,6.012-2.908a.242.242,0,0,1,.343.293,49.753,49.753,0,0,1-1.8,4.829,31.531,31.531,0,0,1-1.637,3.367,10.933,10.933,0,0,1-2.012,2.457,10.339,10.339,0,0,1-3.251,2.083c-.691.271-2.047.8-2.948,1.155-.22.081-3.863,1.448-4.6,1.686L48.931,419.81c-1.505.522-3.265,1.532-3.265,3.479a4.289,4.289,0,0,0,1.526,2.881l16.271,15.172H55.92a8.116,8.116,0,0,0-.655-1.517A6.375,6.375,0,0,0,54,438.153c-.642-.642-1.294-1.311-1.522-1.538l-8.59-8.592a7.975,7.975,0,0,1-2.456-5.478c0-2.582,1.43-5.049,5.7-6.8Z" transform="translate(-41.43 -381.173)" fill="#d90017"/>
        <path id="Path_361" data-name="Path 361" d="M115.978,404.91c.885-.3,2.506-.852,2.936-1s2.1-.764,2.392-.88c1.2-.453,2.332-.884,3.492-1.376.19-.072.381.071.3.276-.133.325-.879,1.919-1.085,2.3-.531.98-1,1.872-1.54,2.708-.474.728-1.172,1.826-1.588,2.329a10.163,10.163,0,0,1-2.334,2.143,9.914,9.914,0,0,1-2.945,1.327L68.122,425.5a.685.685,0,0,0-.5.654.755.755,0,0,0,.482.67l-16.821,4.379-1.372-1.283a2.209,2.209,0,0,1-.732-1.567c0-1.24.965-1.813,2.452-2.3Z" transform="translate(-43.274 -386.042)" fill="#d90017"/>
      </g>
    </g>
  </g>
</svg>
