<svg xmlns="http://www.w3.org/2000/svg" width="253.986" height="55.941" viewBox="0 0 253.986 55.941">
  <g id="Group_5014" data-name="Group 5014" transform="translate(-596 115.446)">
    <path id="Path_331" data-name="Path 331" d="M62.243,120.574v-1.58H74.625v1.58H69.318v11.266H67.549V120.574H62.243" transform="translate(552.568 -191.615)"/>
    <path id="Path_332" data-name="Path 332" d="M97.6,131.841V118.994h1.669v5.458a3.894,3.894,0,0,1,1.522-1.322,4.952,4.952,0,0,1,2.158-.435,4.316,4.316,0,0,1,3.078.984,3.822,3.822,0,0,1,1.04,2.911v5.251h-1.671v-5.025a3.091,3.091,0,0,0-.684-2.187,2.716,2.716,0,0,0-2.071-.727,3.251,3.251,0,0,0-2.449.953,3.488,3.488,0,0,0-.922,2.533v4.451H97.6" transform="translate(531.612 -191.615)"/>
    <path id="Path_333" data-name="Path 333" d="M136.355,134.419a3.125,3.125,0,0,1-1.391,2.225,5.966,5.966,0,0,1-3.224.736,4.855,4.855,0,0,1-3.509-1.222,4.424,4.424,0,0,1-1.278-3.356,4.635,4.635,0,0,1,1.353-3.507,5.062,5.062,0,0,1,3.662-1.3,4.536,4.536,0,0,1,3.371,1.193,4.67,4.67,0,0,1,1.18,3.422c0,.051,0,.129-.009.231s-.006.178-.006.229h-7.813a3.164,3.164,0,0,0,.856,2.315,3.8,3.8,0,0,0,4.173.347,1.88,1.88,0,0,0,.833-1.316h1.8M128.76,132h6.024v-.122a2.575,2.575,0,0,0-.8-2.011,3.171,3.171,0,0,0-2.211-.725,2.979,2.979,0,0,0-2.129.771A2.949,2.949,0,0,0,128.76,132Z" transform="translate(514.213 -196.951)"/>
    <path id="Path_334" data-name="Path 334" d="M172.649,131.841V118.994h5.642a13.873,13.873,0,0,1,2.318.136,3.569,3.569,0,0,1,1.238.458,2.861,2.861,0,0,1,1.051,1.175,3.845,3.845,0,0,1,.365,1.716,3.422,3.422,0,0,1-1.082,2.871,6.462,6.462,0,0,1-3.838.84h-3.958v5.651h-1.735m1.735-7.129h3.778a5.089,5.089,0,0,0,2.691-.458,2.54,2.54,0,0,0,0-3.3,5.154,5.154,0,0,0-2.691-.451h-3.778Z" transform="translate(487.128 -191.615)"/>
    <path id="Path_335" data-name="Path 335" d="M206.362,128a5.417,5.417,0,0,1,3.789,1.236,5.086,5.086,0,0,1,0,6.909,6.418,6.418,0,0,1-7.578,0,5.079,5.079,0,0,1,0-6.909A5.413,5.413,0,0,1,206.362,128m-3.407,4.682a3.385,3.385,0,0,0,.956,2.489,3.627,3.627,0,0,0,4.931,0,3.706,3.706,0,0,0,0-4.982,3.6,3.6,0,0,0-4.926,0A3.415,3.415,0,0,0,202.955,132.679Z" transform="translate(470.194 -196.951)"/>
    <path id="Path_336" data-name="Path 336" d="M233.02,137.516l-3.9-8.946h1.8l3.078,7.266,3.413-7.266h2.047l3.362,7.266,3.276-7.266h1.633l-4.016,8.946h-1.933l-3.449-7.589-3.509,7.589h-1.8" transform="translate(453.659 -197.29)"/>
    <path id="Path_337" data-name="Path 337" d="M286.875,134.419a3.121,3.121,0,0,1-1.393,2.225,5.953,5.953,0,0,1-3.222.736,4.865,4.865,0,0,1-3.511-1.222,4.432,4.432,0,0,1-1.276-3.356,4.635,4.635,0,0,1,1.353-3.507,5.059,5.059,0,0,1,3.662-1.3,4.536,4.536,0,0,1,3.371,1.193,4.668,4.668,0,0,1,1.18,3.422c0,.051,0,.129-.009.231s-.009.178-.009.229h-7.811a3.172,3.172,0,0,0,.853,2.315,3.8,3.8,0,0,0,4.176.347,1.883,1.883,0,0,0,.833-1.316h1.8m-7.6-2.422H285.3v-.122a2.575,2.575,0,0,0-.8-2.011,3.172,3.172,0,0,0-2.211-.725A2.841,2.841,0,0,0,279.278,132Z" transform="translate(424.996 -196.951)"/>
    <path id="Path_338" data-name="Path 338" d="M306.619,137.177v-5.909c0-.476-.013-.964-.04-1.471s-.069-1.027-.122-1.567h1.731l.085,1.66a3.115,3.115,0,0,1,1.349-1.427A4.775,4.775,0,0,1,311.87,128h.318v1.58h-.367a3.722,3.722,0,0,0-2.653.809,3.413,3.413,0,0,0-.845,2.562v4.229h-1.7" transform="translate(407.817 -196.951)"/>
    <path id="Path_339" data-name="Path 339" d="M344.458,128a5.408,5.408,0,0,1,3.787,1.236,5.079,5.079,0,0,1,0,6.909,6.415,6.415,0,0,1-7.576,0,5.08,5.08,0,0,1,0-6.909A5.41,5.41,0,0,1,344.458,128m-3.406,4.682a3.385,3.385,0,0,0,.955,2.489,3.625,3.625,0,0,0,4.929,0,3.7,3.7,0,0,0,0-4.982,3.6,3.6,0,0,0-4.924,0A3.415,3.415,0,0,0,341.052,132.679Z" transform="translate(388.342 -196.951)"/>
    <path id="Path_340" data-name="Path 340" d="M369.134,131.547v-7.735h-2.162V122.6h2.162v-.8a3.883,3.883,0,0,1,.649-2.585,3.077,3.077,0,0,1,2.331-.713c.34,0,.642.011.907.031a7.241,7.241,0,0,1,.731.091l.009,1.178q-.293-.047-.62-.067c-.218-.015-.469-.022-.758-.022a1.449,1.449,0,0,0-1.177.411,2.4,2.4,0,0,0-.336,1.473V122.6h2.653v1.211H370.87v7.735h-1.735" transform="translate(371.948 -191.321)"/>
    <path id="Path_341" data-name="Path 341" d="M403.637,131.841V118.994h5.1a12.871,12.871,0,0,1,3.3.345,5.188,5.188,0,0,1,2.122,1.118,5.774,5.774,0,0,1,1.5,2.1,7.128,7.128,0,0,1,.5,2.747,7.666,7.666,0,0,1-.411,2.571,6.065,6.065,0,0,1-1.229,2.053,5.393,5.393,0,0,1-2.173,1.46,9.687,9.687,0,0,1-3.231.449h-5.469m1.836-1.513h3.107a10.313,10.313,0,0,0,2.677-.267,3.507,3.507,0,0,0,1.567-.891,4.41,4.41,0,0,0,1.022-1.618,6.673,6.673,0,0,0-.044-4.335,3.971,3.971,0,0,0-1.1-1.6,4.088,4.088,0,0,0-1.607-.847,10.932,10.932,0,0,0-2.736-.258h-2.891Z" transform="translate(350.216 -191.615)"/>
    <path id="Path_342" data-name="Path 342" d="M440.685,137.177v-5.909c0-.476-.016-.964-.042-1.471s-.066-1.027-.122-1.567h1.731l.084,1.66a3.121,3.121,0,0,1,1.351-1.427,4.765,4.765,0,0,1,2.249-.467h.318v1.58h-.369a3.722,3.722,0,0,0-2.653.809,3.422,3.422,0,0,0-.845,2.562v4.229h-1.7" transform="translate(328.354 -196.951)"/>
    <path id="Path_343" data-name="Path 343" d="M467.116,134.419a3.12,3.12,0,0,1-1.393,2.225,5.953,5.953,0,0,1-3.222.736,4.864,4.864,0,0,1-3.511-1.222,4.43,4.43,0,0,1-1.276-3.356,4.635,4.635,0,0,1,1.353-3.507,5.059,5.059,0,0,1,3.662-1.3,4.528,4.528,0,0,1,3.369,1.193,4.66,4.66,0,0,1,1.182,3.422c0,.051,0,.129-.009.231s-.009.178-.009.229h-7.813a3.172,3.172,0,0,0,.856,2.315,3.8,3.8,0,0,0,4.175.347,1.882,1.882,0,0,0,.833-1.316h1.8m-7.6-2.422h6.024v-.122a2.575,2.575,0,0,0-.8-2.011,3.171,3.171,0,0,0-2.211-.725A2.838,2.838,0,0,0,459.518,132Z" transform="translate(318.163 -196.951)"/>
    <path id="Path_344" data-name="Path 344" d="M492.62,137.177l-.084-1.4a4.793,4.793,0,0,1-1.625,1.211,5.006,5.006,0,0,1-2.02.389,4.461,4.461,0,0,1-2.778-.786,2.5,2.5,0,0,1-1.027-2.1,2.4,2.4,0,0,1,1.258-2.267,8.854,8.854,0,0,1,4.1-.7h1.982a2.312,2.312,0,0,0-.622-1.753,2.707,2.707,0,0,0-1.884-.566,3.119,3.119,0,0,0-1.669.378,1.411,1.411,0,0,0-.673,1.1l-1.769.009a2.472,2.472,0,0,1,1.2-1.989,5.5,5.5,0,0,1,3-.709,4.473,4.473,0,0,1,3.038.92,3.379,3.379,0,0,1,1.051,2.68v3.569c0,.38.006.74.024,1.075s.042.649.075.936H492.62m-.2-4.474h-2.034a6.945,6.945,0,0,0-2.835.393,1.4,1.4,0,0,0-.767,1.36,1.46,1.46,0,0,0,.642,1.249,2.912,2.912,0,0,0,1.74.462,3.346,3.346,0,0,0,2.38-.833,2.929,2.929,0,0,0,.889-2.242c0-.1,0-.182,0-.238S492.429,132.75,492.425,132.7Z" transform="translate(301.938 -196.951)"/>
    <path id="Path_345" data-name="Path 345" d="M516.907,129.837a3.666,3.666,0,0,1,1.389-1.307,4.016,4.016,0,0,1,1.931-.451,4.435,4.435,0,0,1,2.185.5,3.184,3.184,0,0,1,1.351,1.478,4.753,4.753,0,0,1,1.611-1.5,4.366,4.366,0,0,1,2.078-.471,3.773,3.773,0,0,1,2.758.962,3.608,3.608,0,0,1,.982,2.7v5.484H529.52V132.2a3.367,3.367,0,0,0-.6-2.178,2.184,2.184,0,0,0-1.787-.736,2.879,2.879,0,0,0-3.016,3.009v4.929h-1.7V132.2a3.338,3.338,0,0,0-.609-2.178,2.188,2.188,0,0,0-1.789-.736,2.986,2.986,0,0,0-2.193.84,2.919,2.919,0,0,0-.847,2.169v4.929h-1.7v-6.051c0-.378-.011-.811-.035-1.3s-.056-1.024-.1-1.593H516.8l.1,1.558" transform="translate(284.125 -196.999)"/>
    <path id="Path_346" data-name="Path 346" d="M560.928,134.553H562.7a1.391,1.391,0,0,0,.7,1.229,3.856,3.856,0,0,0,1.993.42,4.947,4.947,0,0,0,2.149-.362,1.156,1.156,0,0,0,.722-1.082c0-.58-.791-1.013-2.373-1.294l-.111-.017a10.549,10.549,0,0,1-3.7-1.074,2,2,0,0,1-.8-1.735,2.185,2.185,0,0,1,1.1-1.944,5.732,5.732,0,0,1,3.078-.7,5.947,5.947,0,0,1,3.1.653,2.3,2.3,0,0,1,1.111,1.969H568a1.421,1.421,0,0,0-.7-1.1,3.571,3.571,0,0,0-1.773-.349,4.2,4.2,0,0,0-1.92.349,1.1,1.1,0,0,0-.654,1.011q0,.846,2.736,1.342l.215.035q.1.017.327.06a10.044,10.044,0,0,1,2.622.691,2.351,2.351,0,0,1,.838.826,2.248,2.248,0,0,1,.271,1.125,2.331,2.331,0,0,1-1.162,2.111,6.523,6.523,0,0,1-3.4.723,6.245,6.245,0,0,1-3.356-.725,2.428,2.428,0,0,1-1.122-2.169" transform="translate(256.986 -196.951)"/>
    <path id="Path_347" data-name="Path 347" d="M45.333,20.342l3.853.467c1.724.2,1.913,1.684,1.913,2.635v4.682H33.349V23.445c0-.951.191-2.436,1.915-2.635l3.851-.467V16.336H16.056v4.006l3.851.467c1.726.2,1.915,1.684,1.915,2.635V38.791c0,.953-.189,2.438-1.915,2.638l-3.851.469v4h23.06v-4l-3.851-.469c-1.724-.2-1.915-1.684-1.915-2.638v-4.68H51.1v4.68c0,.953-.189,2.438-1.913,2.638l-3.853.469v4H68.4v-4l-3.853-.469c-1.727-.2-1.915-1.684-1.915-2.638V23.445c0-.951.189-2.436,1.915-2.635l3.853-.467V16.336H45.333v4.006" transform="translate(579.944 -130.767)" fill="#d90017"/>
    <path id="Path_348" data-name="Path 348" d="M423.575,16.336H395.1v4.006l3.4.367c1.209.153,2.011.689,2.011,2.413V38.791c0,.953-.187,2.438-1.915,2.638l-3.851.469v4l28.826,0c10.311,0,18.795-4.271,18.795-14.782s-8.484-14.78-18.795-14.78m-2.1,23.9-9.66,0V22h9.66c5.7,0,7.636,2.778,7.636,9.115S427.175,40.233,421.477,40.233Z" transform="translate(355.484 -130.767)" fill="#d90017"/>
    <path id="Path_349" data-name="Path 349" d="M556.806,41.476c-1.82-.22-2.394-1.429-2.96-2.32L540.571,18.3c-.953-1.5-1.647-1.967-3.062-1.967H515.651v4.006l5.213.611a1.568,1.568,0,0,1,.916,2.491l-9.806,16.4a2.728,2.728,0,0,1-2.027,1.591l-3.9.462v4h18.424V41.893l-3.173-.331c-1.356-.149-2.078-1.122-1.407-2.253l1.473-2.466h17.691l1.3,2.042c1.149,1.8-.3,2.529-1.547,2.666l-3.26.343V45.9h24.922v-4l-3.664-.422m-32.318-9.864,5.449-9.1,5.791,9.1Z" transform="translate(289.516 -130.767)" fill="#d90017"/>
    <path id="Path_350" data-name="Path 350" d="M298.264,20.342l3.851.467c1.724.2,1.915,1.684,1.915,2.635V38.236L288.8,17.594c-.691-.949-1.282-1.258-2.92-1.258H266.1v4.006l3.851.467c1.727.2,1.913,1.684,1.913,2.635V38.791c0,.953-.187,2.438-1.913,2.638L266.1,41.9v4h18.426v-4l-3.856-.469c-1.724-.2-1.915-1.684-1.915-2.638V24l15.229,20.646c.689.947,1.282,1.256,2.92,1.256h14.015V23.445c0-.951.184-2.436,1.913-2.635l3.851-.467V16.336H298.264v4.006" transform="translate(431.736 -130.767)" fill="#d90017"/>
    <path id="Path_351" data-name="Path 351" d="M170.923,13.842c-18.731,0-23.564,8.422-23.564,15.8s4.834,15.8,23.564,15.8,23.569-8.427,23.569-15.8-4.838-15.8-23.569-15.8m0,25.962c-7.26,0-10.284-3.129-10.284-10.162s3.024-10.166,10.284-10.166,10.284,3.129,10.284,10.166S178.187,39.8,170.923,39.8Z" transform="translate(502.118 -129.288)" fill="#d90017"/>
  </g>
</svg>
